<svg width="29" height="28" viewBox="0 0 29 28" fill="none" xmlns="http://www.w3.org/2000/svg">
<path d="M18.43 11.3938L13.2329 6.19674C13.0208 5.98586 12.7338 5.86749 12.4347 5.86749C12.1355 5.86749 11.8486 5.98586 11.6364 6.19674C11.5303 6.302 11.4461 6.42723 11.3886 6.56521C11.3311 6.70318 11.3015 6.85117 11.3015 7.00065C11.3015 7.15012 11.3311 7.29811 11.3886 7.43609C11.4461 7.57406 11.5303 7.69929 11.6364 7.80455L16.8448 12.9903C16.9509 13.0955 17.0352 13.2208 17.0927 13.3587C17.1501 13.4967 17.1797 13.6447 17.1797 13.7942C17.1797 13.9437 17.1501 14.0916 17.0927 14.2296C17.0352 14.3676 16.9509 14.4928 16.8448 14.5981L11.6364 19.7838C11.4232 19.9955 11.3028 20.2833 11.3018 20.5837C11.3007 20.8842 11.4191 21.1728 11.6308 21.386C11.8425 21.5992 12.1302 21.7195 12.4307 21.7206C12.7311 21.7217 13.0197 21.6033 13.2329 21.3916L18.43 16.1946C19.0661 15.5577 19.4234 14.6943 19.4234 13.7942C19.4234 12.894 19.0661 12.0307 18.43 11.3938V11.3938Z" fill="#7B7B7B"/>
</svg>
