<svg width="28" height="28" viewBox="0 0 28 28" fill="none" xmlns="http://www.w3.org/2000/svg">
<path d="M12.0598 14.5981C11.9537 14.4928 11.8695 14.3676 11.812 14.2296C11.7545 14.0916 11.7249 13.9437 11.7249 13.7942C11.7249 13.6447 11.7545 13.4967 11.812 13.3587C11.8695 13.2208 11.9537 13.0955 12.0598 12.9903L17.2569 7.80455C17.363 7.69929 17.4473 7.57406 17.5047 7.43609C17.5622 7.29811 17.5918 7.15012 17.5918 7.00065C17.5918 6.85117 17.5622 6.70318 17.5047 6.56521C17.4473 6.42723 17.363 6.302 17.2569 6.19674C17.0448 5.98586 16.7578 5.86749 16.4587 5.86749C16.1595 5.86749 15.8726 5.98586 15.6604 6.19674L10.4634 11.3938C9.82726 12.0307 9.46997 12.894 9.46997 13.7942C9.46997 14.6943 9.82726 15.5577 10.4634 16.1946L15.6604 21.3916C15.8713 21.6008 16.156 21.7187 16.453 21.72C16.602 21.7208 16.7497 21.6923 16.8877 21.6359C17.0256 21.5796 17.1511 21.4966 17.2569 21.3916C17.363 21.2864 17.4473 21.1611 17.5047 21.0232C17.5622 20.8852 17.5918 20.7372 17.5918 20.5877C17.5918 20.4383 17.5622 20.2903 17.5047 20.1523C17.4473 20.0143 17.363 19.8891 17.2569 19.7838L12.0598 14.5981Z" fill="white"/>
</svg>
