<svg width="100" height="100" viewBox="0 0 100 100" fill="none" xmlns="http://www.w3.org/2000/svg">
<path d="M61.7875 50.1083L67.6791 56L50 73.6792L32.3208 56L38.2166 50.1083L45.8333 57.725V26.3208H54.1666V57.725L61.7875 50.1083Z" fill="white"/>
<path fill-rule="evenodd" clip-rule="evenodd" d="M82.4083 82.4083C64.5083 100.308 35.4916 100.308 17.5916 82.4083C-0.308373 64.5083 -0.308373 35.4917 17.5916 17.5917C35.4916 -0.308331 64.5083 -0.308331 82.4083 17.5917C100.308 35.4917 100.308 64.5083 82.4083 82.4083ZM76.5166 76.5167C73.0344 79.9989 68.9004 82.7611 64.3507 84.6457C59.8009 86.5303 54.9246 87.5002 50 87.5002C45.0754 87.5002 40.199 86.5303 35.6492 84.6457C31.0995 82.7611 26.9655 79.9989 23.4833 76.5167C20.0011 73.0344 17.2388 68.9005 15.3543 64.3507C13.4697 59.801 12.4997 54.9246 12.4997 50C12.4997 45.0754 13.4697 40.199 15.3543 35.6493C17.2388 31.0995 20.0011 26.9656 23.4833 23.4833C30.5159 16.4507 40.0543 12.4998 50 12.4998C59.9456 12.4998 69.484 16.4507 76.5166 23.4833C83.5493 30.516 87.5002 40.0543 87.5002 50C87.5002 59.9457 83.5493 69.484 76.5166 76.5167Z" fill="white"/>
</svg>
