<svg width="34" height="35" viewBox="0 0 34 35" fill="none" xmlns="http://www.w3.org/2000/svg">
<path d="M0 1.85272C0 1.22739 0.506928 0.720459 1.13226 0.720459H32.8354C33.4608 0.720459 33.9677 1.22739 33.9677 1.85272V33.5986C33.9677 34.2239 33.4608 34.7309 32.8354 34.7309H1.13226C0.506929 34.7309 0 34.2239 0 33.5986V1.85272Z" fill="url(#paint0_linear_1895_880)"/>
<g clip-path="url(#clip0_1895_880)">
<path d="M19.4111 13.3413C18.9489 13.3485 18.4968 13.4777 18.1005 13.7158C17.7041 13.9539 17.3775 14.2925 17.1537 14.6975C16.9298 14.2925 16.6032 13.9539 16.2069 13.7158C15.8105 13.4777 15.3584 13.3485 14.8962 13.3413C14.1595 13.3734 13.4653 13.6961 12.9654 14.2389C12.4655 14.7818 12.2006 15.5007 12.2284 16.2386C12.2284 19.0228 16.7252 22.2386 16.9164 22.375L17.1537 22.5431L17.3909 22.375C17.5822 22.2394 22.079 19.0228 22.079 16.2386C22.1068 15.5007 21.8418 14.7818 21.3419 14.2389C20.842 13.6961 20.1479 13.3734 19.4111 13.3413V13.3413Z" fill="white"/>
</g>
<defs>
<linearGradient id="paint0_linear_1895_880" x1="0" y1="0.720459" x2="34.0104" y2="34.6881" gradientUnits="userSpaceOnUse">
<stop stop-color="#4000F4"/>
<stop offset="0.224829" stop-color="#603AED"/>
<stop offset="0.469313" stop-color="#7C6EE6"/>
<stop offset="0.657091" stop-color="#979FE1"/>
<stop offset="0.77684" stop-color="#A2B3DE"/>
<stop offset="0.889332" stop-color="#ADC8DC"/>
<stop offset="1" stop-color="#C0ECD7"/>
</linearGradient>
<clipPath id="clip0_1895_880">
<path d="M12.2283 14.0966C12.2283 13.4713 12.7352 12.9644 13.3605 12.9644H20.9466C21.572 12.9644 22.0789 13.4713 22.0789 14.0966V21.6951C22.0789 22.3204 21.572 22.8274 20.9466 22.8274H13.3605C12.7352 22.8274 12.2283 22.3204 12.2283 21.6951V14.0966Z" fill="white"/>
</clipPath>
</defs>
</svg>
