<svg width="28" height="31" viewBox="0 0 28 31" fill="none" xmlns="http://www.w3.org/2000/svg">
<g clip-path="url(#clip0_1895_894)">
<path d="M13.5871 17.7441C12.6862 17.7441 11.8222 18.1323 11.1852 18.8233C10.5482 19.5143 10.1903 20.4514 10.1903 21.4286V30.0576H16.9838V21.4286C16.9838 20.4514 16.626 19.5143 15.989 18.8233C15.3519 18.1323 14.488 17.7441 13.5871 17.7441Z" fill="white"/>
<path d="M15.102 1.5735C14.6862 1.16751 14.1465 0.942871 13.5871 0.942871C13.0276 0.942871 12.4879 1.16751 12.0721 1.5735L0 13.3589V26.1317C0 27.174 0.381731 28.1736 1.06122 28.9107C1.7407 29.6477 2.66228 30.0618 3.62322 30.0618H7.92579V21.4291C7.92579 19.8004 8.52225 18.2385 9.58394 17.0869C10.6456 15.9353 12.0856 15.2883 13.5871 15.2883C15.0885 15.2883 16.5285 15.9353 17.5902 17.0869C18.6519 18.2385 19.2484 19.8004 19.2484 21.4291V30.0581H23.5509C24.5119 30.0581 25.4334 29.644 26.1129 28.907C26.7924 28.1699 27.1741 27.1703 27.1741 26.128V13.3552L15.102 1.5735Z" fill="white"/>
</g>
<defs>
<clipPath id="clip0_1895_894">
<rect width="27.1741" height="29.4757" fill="white" transform="translate(0 0.550354)"/>
</clipPath>
</defs>
</svg>
