<svg width="34" height="35" viewBox="0 0 34 35" fill="none" xmlns="http://www.w3.org/2000/svg">
<rect y="0.730957" width="33.9677" height="34.0104" rx="5.66128" fill="#004638"/>
<path d="M12.4459 25.0193C11.4365 24.0085 10.749 22.7207 10.4705 21.3188C10.192 19.9169 10.3349 18.4637 10.8813 17.1431C11.4276 15.8225 12.3528 14.6938 13.5398 13.8997C14.7268 13.1055 16.1223 12.6817 17.5499 12.6817C18.9776 12.6817 20.3731 13.1055 21.5601 13.8997C22.7471 14.6938 23.6723 15.8225 24.2186 17.1431C24.7649 18.4637 24.9079 19.9169 24.6294 21.3188C24.3509 22.7207 23.6634 24.0085 22.654 25.0193L23.788 26.1547C24.6084 25.3354 25.2591 24.3618 25.7026 23.29C26.146 22.2181 26.3736 21.069 26.3721 19.9088C26.3721 15.0305 22.4222 11.0756 17.5499 11.0756C12.6777 11.0756 8.72778 15.0305 8.72778 19.9088C8.72778 22.3484 9.71506 24.5567 11.3119 26.1547L12.4459 25.0193V25.0193Z" fill="#159643"/>
<path d="M21.5199 23.8838C22.305 23.0977 22.8397 22.0961 23.0562 21.0057C23.2728 19.9153 23.1616 18.7851 22.7367 17.758C22.3117 16.7309 21.5921 15.853 20.6689 15.2354C19.7457 14.6177 18.6603 14.2881 17.55 14.2881C16.4396 14.2881 15.3542 14.6177 14.431 15.2354C13.5078 15.853 12.7882 16.7309 12.3633 17.758C11.9383 18.7851 11.8271 19.9153 12.0437 21.0057C12.2603 22.0961 12.7949 23.0977 13.58 23.8838L14.7148 22.7483C14.154 22.1868 13.7721 21.4714 13.6173 20.6925C13.4626 19.9137 13.542 19.1064 13.8455 18.3727C14.149 17.639 14.663 17.0119 15.3225 16.5707C15.9819 16.1296 16.7572 15.8941 17.5504 15.8941C18.3435 15.8941 19.1188 16.1296 19.7782 16.5707C20.4377 17.0119 20.9517 17.639 21.2552 18.3727C21.5587 19.1064 21.6381 19.9137 21.4834 20.6925C21.3286 21.4714 20.9467 22.1868 20.3859 22.7483L21.5199 23.8838Z" fill="#159643"/>
<path d="M19.251 21.612C19.5875 21.2751 19.8166 20.8458 19.9094 20.3785C20.0022 19.9112 19.9545 19.4269 19.7724 18.9867C19.5903 18.5465 19.2819 18.1703 18.8862 17.9056C18.4906 17.6409 18.0254 17.4996 17.5495 17.4996C17.0737 17.4996 16.6085 17.6409 16.2129 17.9056C15.8172 18.1703 15.5088 18.5465 15.3267 18.9867C15.1446 19.4269 15.0969 19.9112 15.1897 20.3785C15.2825 20.8458 15.5116 21.2751 15.8481 21.612L16.9829 20.4766C16.8707 20.3643 16.7943 20.2212 16.7634 20.0654C16.7324 19.9096 16.7483 19.7481 16.809 19.6014C16.8696 19.4547 16.9724 19.3292 17.1043 19.241C17.2362 19.1527 17.3913 19.1056 17.5499 19.1056C17.7086 19.1056 17.8636 19.1527 17.9955 19.241C18.1274 19.3292 18.2302 19.4547 18.2909 19.6014C18.3516 19.7481 18.3675 19.9096 18.3365 20.0654C18.3056 20.2212 18.2292 20.3643 18.117 20.4766L19.251 21.612V21.612Z" fill="#159643"/>
</svg>
