<svg width="72" height="72" viewBox="0 0 72 72" fill="none" xmlns="http://www.w3.org/2000/svg">
<path d="M60.4286 62.3571C60.4286 62.8686 60.6318 63.3592 60.9935 63.7208C61.3552 64.0825 61.8457 64.2857 62.3572 64.2857C62.8687 64.2857 63.3592 64.0825 63.7209 63.7208C64.0826 63.3592 64.2858 62.8686 64.2858 62.3571V9.64286C64.2858 9.13137 64.0826 8.64083 63.7209 8.27915C63.3592 7.91747 62.8687 7.71429 62.3572 7.71429C61.8457 7.71429 61.3552 7.91747 60.9935 8.27915C60.6318 8.64083 60.4286 9.13137 60.4286 9.64286L60.4286 62.3571ZM7.71434 58.4897C7.71434 63.1594 12.9626 65.9057 16.7992 63.2417L48.9523 40.9217C49.7171 40.3911 50.3425 39.6837 50.7755 38.8598C51.2085 38.0358 51.4363 37.1195 51.4396 36.1887C51.4429 35.2579 51.2215 34.34 50.7943 33.513C50.3671 32.686 49.7467 31.9743 48.9858 31.4383L16.8326 8.784C13.0012 6.084 7.71434 8.82257 7.71434 13.5129V58.4897Z" fill="white"/>
</svg>
