<svg width="72" height="72" viewBox="0 0 72 72" fill="none" xmlns="http://www.w3.org/2000/svg">
<path d="M11.5714 9.64286C11.5714 9.13137 11.3682 8.64083 11.0065 8.27915C10.6448 7.91747 10.1543 7.71429 9.6428 7.71429C9.13132 7.71429 8.64078 7.91747 8.2791 8.27915C7.91742 8.64083 7.71423 9.13137 7.71423 9.64286V62.3571C7.71423 62.8686 7.91742 63.3592 8.2791 63.7209C8.64078 64.0825 9.13132 64.2857 9.6428 64.2857C10.1543 64.2857 10.6448 64.0825 11.0065 63.7209C11.3682 63.3592 11.5714 62.8686 11.5714 62.3571V9.64286ZM64.2857 13.5103C64.2857 8.84057 59.0374 6.09429 55.2008 8.75829L23.0477 31.0783C22.2829 31.6089 21.6575 32.3163 21.2245 33.1402C20.7915 33.9642 20.5637 34.8805 20.5604 35.8113C20.5571 36.7421 20.7785 37.66 21.2057 38.487C21.6329 39.314 22.2533 40.0257 23.0142 40.5617L55.1674 63.216C58.9988 65.916 64.2857 63.1774 64.2857 58.4871V13.5103Z" fill="white"/>
</svg>
