<svg width="256" height="256" viewBox="0 0 256 256" fill="none" xmlns="http://www.w3.org/2000/svg">
<path d="M232 128C231.979 147.089 224.386 165.39 210.888 178.888C197.39 192.386 179.089 199.979 160 200H64.0001V216C64.0013 217.583 63.5328 219.131 62.6538 220.448C61.7749 221.765 60.525 222.791 59.0624 223.397C57.5998 224.003 55.9903 224.161 54.4376 223.852C52.8849 223.543 51.4589 222.78 50.3401 221.66L26.3401 197.66C25.5962 196.917 25.0062 196.035 24.6036 195.064C24.201 194.092 23.9938 193.051 23.9938 192C23.9938 190.949 24.201 189.908 24.6036 188.936C25.0062 187.965 25.5962 187.083 26.3401 186.34L50.3401 162.34C51.4589 161.22 52.8849 160.457 54.4376 160.148C55.9903 159.839 57.5998 159.997 59.0624 160.603C60.525 161.209 61.7749 162.235 62.6538 163.552C63.5328 164.869 64.0013 166.417 64.0001 168V184H160C174.847 183.984 189.082 178.079 199.58 167.58C210.079 157.082 215.984 142.847 216 128C216 125.878 216.843 123.843 218.343 122.343C219.843 120.843 221.878 120 224 120C226.122 120 228.157 120.843 229.657 122.343C231.157 123.843 232 125.878 232 128ZM32.0001 136C34.1218 136 36.1566 135.157 37.6569 133.657C39.1572 132.157 40.0001 130.122 40.0001 128C40.0159 113.153 45.921 98.9182 56.4196 88.4196C66.9182 77.921 81.1528 72.0159 96.0001 72H192V88C191.999 89.5832 192.467 91.1311 193.346 92.4479C194.225 93.7646 195.475 94.791 196.938 95.397C198.4 96.003 200.01 96.1614 201.563 95.8522C203.115 95.543 204.541 94.7801 205.66 93.66L229.66 69.66C230.404 68.917 230.994 68.0347 231.397 67.0635C231.799 66.0923 232.006 65.0513 232.006 64C232.006 62.9487 231.799 61.9077 231.397 60.9365C230.994 59.9653 230.404 59.083 229.66 58.34L205.66 34.34C204.541 33.2199 203.115 32.457 201.563 32.1478C200.01 31.8386 198.4 31.997 196.938 32.603C195.475 33.209 194.225 34.2354 193.346 35.5521C192.467 36.8689 191.999 38.4168 192 40V56H96.0001C76.911 56.0212 58.6098 63.6137 45.1118 77.1117C31.6137 90.6097 24.0212 108.911 24.0001 128C24.0001 130.122 24.8429 132.157 26.3432 133.657C27.8435 135.157 29.8783 136 32.0001 136Z" fill="white"/>
</svg>
