<svg width="30" height="31" viewBox="0 0 30 31" fill="none" xmlns="http://www.w3.org/2000/svg">
<g clip-path="url(#clip0_1895_965)">
<path d="M29.9123 28.4783L22.2313 20.7973C24.2265 18.357 25.2075 15.2433 24.9713 12.1001C24.7351 8.95682 23.2999 6.02461 20.9624 3.90992C18.625 1.79523 15.5641 0.659857 12.413 0.738645C9.26192 0.817432 6.26165 2.10435 4.03279 4.33321C1.80392 6.56208 0.517004 9.56235 0.438216 12.7135C0.359429 15.8646 1.4948 18.9254 3.60949 21.2629C5.72418 23.6003 8.65639 25.0356 11.7996 25.2717C14.9428 25.5079 18.0566 24.5269 20.4968 22.5317L28.1779 30.2127L29.9123 28.4783ZM12.7397 22.8531C10.7989 22.8531 8.90172 22.2775 7.288 21.1993C5.67427 20.121 4.41653 18.5885 3.67382 16.7954C2.9311 15.0023 2.73678 13.0293 3.11541 11.1258C3.49404 9.22226 4.42863 7.47377 5.80098 6.10141C7.17334 4.72906 8.92183 3.79447 10.8253 3.41584C12.7289 3.03721 14.7019 3.23153 16.495 3.97425C18.288 4.71696 19.8206 5.9747 20.8989 7.58842C21.9771 9.20215 22.5526 11.0994 22.5526 13.0402C22.5497 15.6418 21.5149 18.1361 19.6753 19.9757C17.8356 21.8153 15.3414 22.8501 12.7397 22.8531Z" fill="black"/>
</g>
<defs>
<clipPath id="clip0_1895_965">
<rect width="29.4387" height="29.4387" fill="white" transform="translate(0.473907 0.773254)"/>
</clipPath>
</defs>
</svg>
