<svg width="28" height="28" viewBox="0 0 28 28" fill="none" xmlns="http://www.w3.org/2000/svg">
<g clip-path="url(#clip0_1895_897)">
<path d="M27.1739 26.1991L20.0837 19.1C21.9255 16.8446 22.831 13.9668 22.613 11.0617C22.395 8.1566 21.0701 5.44654 18.9125 3.49206C16.7548 1.53758 13.9294 0.488228 11.0207 0.561046C8.11201 0.633865 5.34252 1.82329 3.28511 3.88328C1.2277 5.94328 0.0397747 8.71625 -0.0329521 11.6286C-0.105679 14.541 0.942358 17.3699 2.89438 19.5303C4.8464 21.6907 7.55306 23.0172 10.4545 23.2355C13.3559 23.4537 16.2302 22.5471 18.4827 20.703L25.5729 27.8021L27.1739 26.1991ZM11.3223 21C9.53079 21 7.77951 20.4681 6.28992 19.4716C4.80033 18.475 3.63934 17.0585 2.95376 15.4013C2.26818 13.7441 2.0888 11.9205 2.4383 10.1612C2.78781 8.40193 3.65051 6.78591 4.9173 5.51752C6.18409 4.24914 7.79808 3.38536 9.55517 3.03541C11.3123 2.68546 13.1335 2.86507 14.7887 3.55151C16.4438 4.23796 17.8585 5.40041 18.8538 6.89187C19.8491 8.38334 20.3804 10.1368 20.3804 11.9306C20.3777 14.3351 19.4225 16.6404 17.7243 18.3407C16.0262 20.0409 13.7238 20.9973 11.3223 21Z" fill="white"/>
</g>
<defs>
<clipPath id="clip0_1895_897">
<rect width="27.1741" height="27.2083" fill="white" transform="translate(0 0.592896)"/>
</clipPath>
</defs>
</svg>
