<svg width="256" height="256" viewBox="0 0 256 256" fill="none" xmlns="http://www.w3.org/2000/svg">
<path d="M237.66 178.34C238.404 179.083 238.994 179.965 239.396 180.936C239.799 181.908 240.006 182.949 240.006 184C240.006 185.051 239.799 186.092 239.396 187.064C238.994 188.035 238.404 188.917 237.66 189.66L213.66 213.66C212.541 214.78 211.115 215.543 209.562 215.852C208.01 216.161 206.4 216.003 204.938 215.397C203.475 214.791 202.225 213.765 201.346 212.448C200.467 211.131 199.999 209.583 200 208V192C188.702 191.841 177.599 189.031 167.585 183.796C157.572 178.561 148.928 171.047 142.35 161.86L100.63 103.46C95.4441 96.2107 88.6055 90.3014 80.6808 86.2216C72.756 82.1419 63.9732 80.0091 55.06 80H32C29.8783 80 27.8434 79.1571 26.3431 77.6569C24.8429 76.1566 24 74.1217 24 72C24 69.8783 24.8429 67.8434 26.3431 66.3431C27.8434 64.8429 29.8783 64 32 64H55.06C66.5189 64.0095 77.8106 66.7494 87.9996 71.9926C98.1886 77.2357 106.982 84.8313 113.65 94.15L155.37 152.55C160.462 159.671 167.151 165.501 174.901 169.573C182.651 173.645 191.247 175.846 200 176V160C199.999 158.417 200.467 156.869 201.346 155.552C202.225 154.235 203.475 153.209 204.938 152.603C206.4 151.997 208.01 151.839 209.562 152.148C211.115 152.457 212.541 153.22 213.66 154.34L237.66 178.34ZM143 107C143.855 107.611 144.822 108.047 145.845 108.284C146.869 108.521 147.929 108.554 148.965 108.381C150.002 108.209 150.994 107.834 151.885 107.277C152.776 106.721 153.549 105.995 154.16 105.14L155.36 103.47C160.451 96.3439 167.141 90.5094 174.893 86.4337C182.645 82.3581 191.243 80.1547 200 80V96C199.999 97.5832 200.467 99.1311 201.346 100.448C202.225 101.765 203.475 102.791 204.938 103.397C206.4 104.003 208.01 104.161 209.562 103.852C211.115 103.543 212.541 102.78 213.66 101.66L237.66 77.66C238.404 76.917 238.994 76.0347 239.396 75.0635C239.799 74.0923 240.006 73.0513 240.006 72C240.006 70.9487 239.799 69.9077 239.396 68.9365C238.994 67.9653 238.404 67.083 237.66 66.34L213.66 42.34C212.541 41.2199 211.115 40.457 209.562 40.1478C208.01 39.8386 206.4 39.997 204.938 40.603C203.475 41.209 202.225 42.2354 201.346 43.5521C200.467 44.8689 199.999 46.4168 200 48V64C188.702 64.1587 177.599 66.9688 167.585 72.2039C157.572 77.439 148.928 84.9528 142.35 94.14L141.15 95.81C140.534 96.6653 140.093 97.6338 139.853 98.66C139.613 99.6861 139.577 100.75 139.749 101.789C139.921 102.829 140.297 103.825 140.855 104.719C141.413 105.613 142.142 106.388 143 107ZM113 149C112.145 148.389 111.178 147.953 110.155 147.716C109.131 147.479 108.071 147.446 107.035 147.619C105.998 147.791 105.006 148.166 104.115 148.723C103.224 149.279 102.451 150.005 101.84 150.86L100.64 152.53C95.4542 159.783 88.6145 165.695 80.6878 169.776C72.7612 173.858 63.9758 175.991 55.06 176H32C29.8783 176 27.8434 176.843 26.3431 178.343C24.8429 179.843 24 181.878 24 184C24 186.122 24.8429 188.157 26.3431 189.657C27.8434 191.157 29.8783 192 32 192H55.06C66.5189 191.99 77.8106 189.251 87.9996 184.007C98.1886 178.764 106.982 171.169 113.65 161.85L114.85 160.18C115.464 159.325 115.904 158.357 116.143 157.332C116.383 156.307 116.418 155.245 116.246 154.206C116.074 153.167 115.699 152.173 115.142 151.279C114.585 150.386 113.857 149.612 113 149Z" fill="white"/>
</svg>
